<?xml version="1.0" encoding="UTF-8" standalone="no"?>
<svg
   width="22"
   height="20"
   fill="#ffffff"
   version="1.1"
   id="svg826"
   sodipodi:docname="logo.svg"
   inkscape:version="1.1.2 (b8e25be8, 2022-02-05)"
   xmlns:inkscape="http://www.inkscape.org/namespaces/inkscape"
   xmlns:sodipodi="http://sodipodi.sourceforge.net/DTD/sodipodi-0.dtd"
   xmlns="http://www.w3.org/2000/svg"
   xmlns:svg="http://www.w3.org/2000/svg">
  <defs
     id="defs830">
    <style
       id="style2">.cls-1{fill:#fff;}.cls-2{fill:none;}.cls-3{fill:#f0b01f;}.cls-4{mask:url(#mask);}.cls-5{clip-path:url(#clip-path);}</style>
  </defs>
  <sodipodi:namedview
     id="namedview828"
     pagecolor="#505050"
     bordercolor="#eeeeee"
     borderopacity="1"
     inkscape:pageshadow="0"
     inkscape:pageopacity="0"
     inkscape:pagecheckerboard="0"
     showgrid="false"
     inkscape:snap-global="true"
     inkscape:snap-page="true"
     inkscape:object-nodes="false"
     inkscape:snap-nodes="false"
     inkscape:snap-bbox="true"
     inkscape:bbox-paths="false"
     inkscape:bbox-nodes="true"
     inkscape:zoom="23.109535"
     inkscape:cx="11.423856"
     inkscape:cy="12.354208"
     inkscape:window-width="1689"
     inkscape:window-height="869"
     inkscape:window-x="0"
     inkscape:window-y="25"
     inkscape:window-maximized="0"
     inkscape:current-layer="Layer_2" />
  <g
     id="Layer_2"
     data-name="Layer 2"
     transform="matrix(0.08317066,0,0,0.08317066,22.003883,7.6613961)">
    <g
       id="g1129"
       transform="matrix(0.39353502,0,0,0.39353502,-156.50069,-66.637581)">
      <path
         d="M 1.263,2.744 C 2.41,3.832 2.845,4.932 4.118,5.08 L 4.154,5.087 C 3.566,5.693 3.064,6.489 2.711,7.51 2.331,8.606 2.223,9.795 2.097,11.169 c -0.19,2.046 -0.401,4.364 -1.556,7.269 -2.486,6.258 -1.12,11.63 0.332,17.317 0.664,2.604 1.348,5.297 1.642,8.107 a 0.857,0.857 0 0 0 0.633,0.744 0.86,0.86 0 0 0 0.922,-0.323 c 0.227,-0.313 0.524,-0.797 0.86,-1.424 0.84,3.323 1.355,6.13 1.783,8.697 a 0.866,0.866 0 0 0 1.517,0.41 c 2.88,-3.463 3.763,-8.636 2.184,-12.674 0.459,-2.433 1.402,-4.45 2.398,-6.583 0.536,-1.15 1.08,-2.318 1.55,-3.566 0.228,-0.084 0.569,-0.314 0.79,-0.441 l 1.707,-0.981 -0.256,1.052 a 0.864,0.864 0 0 0 1.678,0.408 l 0.68,-2.858 1.285,-2.95 a 0.863,0.863 0 1 0 -1.581,-0.687 l -1.152,2.669 -2.383,1.372 a 18.97,18.97 0 0 0 0.508,-2.981 c 0.432,-4.86 -0.718,-9.074 -3.066,-11.266 -0.163,-0.157 -0.208,-0.281 -0.247,-0.26 0.095,-0.12 0.249,-0.26 0.358,-0.374 2.283,-1.693 6.047,-0.147 8.319,0.75 0.589,0.232 0.876,-0.337 0.316,-0.67 C 19.368,10.773 15.37,7.73 13.13,5.733 12.817,5.458 12.603,5.126 12.24,4.82 9.825,0.555 4.072,3.057 1.355,2.569 1.253,2.551 1.189,2.672 1.263,2.744 m 10.98,5.899 c -0.06,1.242 -0.603,1.8 -1,2.208 -0.217,0.224 -0.426,0.436 -0.524,0.738 -0.236,0.714 0.008,1.51 0.66,2.143 1.974,1.84 2.925,5.527 2.538,9.86 -0.291,3.288 -1.448,5.763 -2.671,8.385 -1.031,2.207 -2.096,4.489 -2.577,7.259 a 0.853,0.853 0 0 0 0.056,0.48 c 1.02,2.434 1.135,6.197 -0.672,9.46 A 96.586,96.586 0 0 0 6.083,40.465 C 8.047,35.977 10.286,28.715 9.002,22.797 8.677,21.3 7.698,19.521 6.615,18.59 6.407,18.41 6.213,18.353 6.12,18.423 c -0.084,0.06 -0.151,0.238 -0.062,0.444 0.55,1.266 0.879,2.599 1.226,4.276 1.125,5.443 -0.956,12.49 -2.835,16.782 L 4.333,40.184 3.876,41.166 C 3.52,39.152 3.026,37.216 2.546,35.326 1.166,29.92 -0.134,24.811 2.145,19.072 3.392,15.935 3.628,13.38 3.817,11.326 3.933,10.063 4.033,8.971 4.343,8.074 5.248,5.469 7.405,4.896 9.087,5.222 c 1.632,0.316 3.24,1.593 3.156,3.42 z M 9.375,9.263 A 1.1770081,1.1770081 0 1 0 10.111,7.027 1.178,1.178 0 1 0 9.375,9.264 Z"
         id="path824"
         transform="matrix(12.023471,0,0,12.023471,-264.56304,-92.116572)" />
      <path
         id="circle912"
         style="display:inline;fill:#ffffff;stroke:none;stroke-width:6.22004;stroke-linecap:round;stroke-linejoin:round;paint-order:stroke markers fill"
         d="m 166.69924,56.566791 a 223.99998,223.99998 0 0 0 -89.46875,21.66602 l 0.0137,0.004 c 9.17137,2.53113 17.90736,6.43092 25.91407,11.57031 1.75034,1.08586 3.49242,2.22842 5.22656,3.42773 0.60022,0.41597 1.18767,0.85027 1.78125,1.27539 7.84886,-2.67621 15.85811,-4.85554 23.98242,-6.51953 0.69078,-0.84759 1.38834,-1.68921 2.0957,-2.52343 1.62068,-1.94483 3.31909,-3.87275 5.09375,-5.78516 7.72857,-8.4679 16.22402,-16.19705 25.36133,-23.11523 z m 13.72461,0 c 9.13684,6.91795 17.63116,14.64772 25.35938,23.11524 1.77466,1.91241 3.47307,3.84033 5.09375,5.78515 0.70946,0.83671 1.40878,1.6811 2.10156,2.53125 8.12246,1.66336 16.13255,3.8363 23.98047,6.51172 0.59273,-0.42449 1.17799,-0.86003 1.77734,-1.27539 1.73414,-1.19931 3.47622,-2.34187 5.22656,-3.42773 8.00671,-5.13939 16.7427,-9.03918 25.91407,-11.57032 l 0.0137,-0.004 a 223.99998,223.99998 0 0 0 -89.46683,-21.66602 z m -6.86328,2.52539 c -10.08452,7.2306 -19.37396,15.51014 -27.71289,24.69922 -7.07133,7.64679 -13.40417,15.94475 -18.91406,24.783199 -0.76578,1.21552 -1.50658,2.43051 -2.24805,3.76758 -0.74146,1.33707 -1.4478,2.55292 -2.14062,3.85352 -8.75175,16.34869 -14.71835,35.65268 -13.47852,57.13085 -16.65257,-19.898 -33.26855,-29.01606 -49.39844,-31.17968 -1.42215,-0.19448 -2.83219,-0.32749 -4.24219,-0.40039 -1.21552,-0.0851 -2.43096,-0.1211 -3.64648,-0.1211 h -0.62109 c -7.33367,0.15241 -14.59949,1.43981 -21.53907,3.81641 -15.94755,5.29965 -31.1177102,15.47402 -44.9746,26.20703 7.5398898,0.0904 15.02281976,1.31978 22.1953099,3.64648 10.7485701,3.52699 20.9957201,8.42965 30.4863201,14.58594 0.004,0.003 0.009,0.005 0.0137,0.008 3.74631,-2.10614 7.62287,-3.97238 11.60547,-5.58789 1.39785,-0.58345 2.7838,-1.10515 4.18164,-1.60351 1.39784,-0.49836 2.80723,-0.94805 4.20507,-1.36133 6.85051,-2.08189 13.96724,-3.16278 21.12696,-3.20898 13.69696,0.0258 27.06054,4.22289 38.3125,12.0332 1.27224,0.85897 2.53694,1.77006 3.79297,2.73437 1.21551,0.89948 2.43011,1.86071 3.56054,2.85743 0.72175,0.60343 1.44376,1.1865 2.1543,1.86718 10e-4,-0.54921 0.0281,-1.09727 0.0684,-1.64062 0.041,-0.55306 0.0942,-1.10146 0.13672,-1.64844 0.0608,-0.88125 0.13284,-1.75417 0.21484,-2.61719 0.082,-0.86301 0.17429,-1.71771 0.27149,-2.5625 l 0.0684,-0.0371 c 0.19333,-1.67588 0.43269,-3.60426 0.70898,-5.25 2.17347,-14.58212 7.12482,-28.61028 14.58594,-41.32617 0.86302,-1.45862 1.72639,-2.84544 2.60156,-4.1582 0.53482,-0.83871 1.08193,-1.64156 1.62891,-2.43164 0.3525,-0.49837 0.69242,-0.98298 1.04492,-1.45703 11.04837,-15.26706 22.31652,-22.28054 22.80273,-22.57227 l 3.14834,-1.94551 3.14844,1.94531 c 0.48621,0.29173 11.75446,7.30501 22.80273,22.57227 0.3525,0.47405 0.69242,0.95866 1.04492,1.45703 0.54698,0.79008 1.09409,1.59293 1.62891,2.43164 0.87517,1.31276 1.73854,2.69958 2.60156,4.1582 7.46112,12.71589 12.41247,26.74405 14.58594,41.32617 0.27629,1.64574 0.51565,3.57412 0.70898,5.25 l 0.0684,0.0371 c 0.0972,0.84479 0.18949,1.69949 0.27149,2.5625 0.082,0.86302 0.15404,1.73594 0.21484,2.61719 0.0425,0.54698 0.0957,1.09538 0.13672,1.64844 0.0403,0.54335 0.0674,1.09141 0.0684,1.64062 0.71054,-0.68068 1.43255,-1.26375 2.1543,-1.86718 1.13043,-0.99672 2.34503,-1.95795 3.56054,-2.85743 1.25603,-0.96431 2.52073,-1.8754 3.79297,-2.73437 11.25196,-7.81031 24.61554,-12.0074 38.3125,-12.0332 7.15972,0.0462 14.27645,1.12709 21.12696,3.20898 1.39784,0.41328 2.80723,0.86297 4.20507,1.36133 1.39784,0.49836 2.78379,1.02006 4.18164,1.60351 3.9826,1.61551 7.85916,3.48175 11.60547,5.58789 0.005,-0.003 0.01,-0.005 0.0137,-0.008 9.49061,-6.15629 19.73775,-11.05895 30.48632,-14.58594 7.17249,-2.3267 14.65543,-3.55608 22.19532,-3.64648 -13.85689,-10.73301 -29.02704,-20.90738 -44.97461,-26.20703 -6.93958,-2.3766 -14.2054,-3.664 -21.53907,-3.81641 h -0.62109 c -1.21552,0 -2.43096,0.036 -3.64648,0.1211 -1.41,0.0729 -2.82004,0.20591 -4.24219,0.40039 -16.12989,2.16362 -32.74587,11.28168 -49.39844,31.17968 1.23983,-21.47817 -4.7268,-40.78216 -13.47852,-57.13085 -0.69283,-1.3006 -1.39916,-2.51645 -2.14062,-3.85352 -0.74147,-1.33707 -1.48227,-2.55206 -2.24805,-3.76758 -5.51009,-8.838049 -11.84283,-17.136209 -18.91416,-24.782999 -8.33883,-9.18928 -17.62837,-17.46862 -27.71289,-24.69922 z m 106.26562,24.17969 c 4.44183,9.56623 7.94439,19.542119 10.44727,29.789059 0.81439,3.20897 1.5806,6.44077 2.27344,9.72266 0.11619,0.52695 0.21354,1.06627 0.32617,1.5957 5.03631,3.84986 9.88304,7.94164 14.52344,12.25976 0.60118,0.10545 1.20413,0.19743 1.80273,0.31836 3.46951,0.69271 6.89222,1.60205 10.24805,2.72266 18.09904,6.00465 34.51928,17.67328 46.82031,27.1543 l 0.26758,0.20703 0.3457,0.26758 A 223.99998,223.99998 0 0 0 279.82619,83.271871 Z m -212.53124,0.002 a 223.99998,223.99998 0 0 0 -87.05078,84.033199 l 0.3418,-0.26562 0.26757,-0.20703 c 12.3010298,-9.48102 28.7212799,-21.14965 46.82031,-27.1543 3.35583,-1.12061 6.77854,-2.02995 10.24805,-2.72266 0.5986,-0.12093 1.20155,-0.21291 1.80273,-0.31836 4.64009,-4.31794 9.48575,-8.40824 14.52149,-12.25781 0.11278,-0.53019 0.21176,-1.06995 0.32812,-1.59765 0.69284,-3.2819 1.45905,-6.5137 2.27344,-9.72266 2.50274,-10.24637 6.0058,-20.221369 10.44727,-29.787109 z m 7.79687,3.17969 c -4.31149,9.21371 -7.70277,18.828989 -10.125,28.708979 -1.75034,6.78258 -3.22178,13.84626 -4.38867,20.95703 14.963,2.04207 29.28274,9.46714 42.67773,22.13282 1.56006,-15.77744 6.29849,-31.07567 13.92969,-44.97266 0.26155,-0.48744 0.52396,-0.98664 0.79688,-1.47461 -5.96478,-5.51843 -12.43426,-10.46617 -19.32227,-14.777389 -7.28483,-4.68086 -15.22858,-8.24456 -23.56836,-10.57422 z m 196.9375,0 c -8.33978,2.32966 -16.28353,5.89335 -23.56836,10.57422 -6.88801,4.311219 -13.3575,9.258959 -19.32227,14.777339 0.27292,0.48797 0.53533,0.98717 0.79688,1.47461 7.6312,13.89699 12.36963,29.19522 13.92969,44.97266 13.39499,-12.66568 27.71473,-20.09075 42.67773,-22.13282 -1.16689,-7.11077 -2.63833,-14.17445 -4.38867,-20.95703 -2.42223,-9.87999 -5.81351,-19.495269 -10.125,-28.708979 z m -98.46875,30.642529 c 0,0 -11.72986,7.1715 -22.66992,23.33789 -0.9238,1.33707 -1.82318,2.74602 -2.72266,4.21679 -0.89948,1.47078 -1.80993,3.06457 -2.69726,4.69336 -5.14185,9.59295 -8.80588,19.90664 -10.86719,30.59375 -0.34034,1.77465 -0.65598,3.6463 -0.93555,5.44532 -0.27957,1.79893 -0.48759,3.48813 -0.66992,5.2871 -0.76528,7.35673 -0.92244,14.76375 -0.47266,22.14649 -0.0346,-0.0421 -0.0707,-0.083 -0.10546,-0.125 0.003,0.054 0.005,0.10811 0.008,0.16211 -0.52302,-0.6354 -1.05501,-1.26327 -1.59375,-1.88477 -1.07749,-1.243 -2.18555,-2.4588 -3.32422,-3.64453 -1.13868,-1.18572 -2.30632,-2.34255 -3.50391,-3.46875 -0.59879,-0.5631 -1.20526,-1.11822 -1.81836,-1.66601 -0.61309,-0.5478 -1.2342,-1.08695 -1.86133,-1.61914 -0.62709,-0.53221 -1.2615,-1.05788 -1.90234,-1.57422 -1.21552,-0.98457 -2.43096,-1.90847 -3.64648,-2.77149 -0.60776,-0.4315 -1.26637,-0.88619 -1.93946,-1.33594 -0.67309,-0.44974 -1.35903,-0.89358 -2.02148,-1.30078 l 0.0801,-0.0469 c -9.68742,-6.0955 -20.89405,-9.33953 -32.33985,-9.36133 -7.05437,0.0479 -14.06013,1.17431 -20.77343,3.3418 -1.38569,0.43758 -2.77252,0.92502 -4.15821,1.43554 -1.38569,0.51051 -2.74605,1.06847 -4.10742,1.66407 -2.13931,0.9238 -4.2433,1.93338 -6.33398,3.02734 -1.02103,0.52673 -2.02866,1.07339 -3.02539,1.64062 -0.98457,0.54698 -1.95771,1.11968 -2.91797,1.70313 -13.27161,8.29581 -25.14525,18.64158 -35.1777302,30.6543 44.6920102,3.44624 69.0553102,14.05183 82.6582002,27.19726 -1.26314,0.94182 -2.50387,1.90738 -3.73243,2.88672 -15.1838,12.12427 -27.63825,27.16715 -36.35351,44.21485 l 6.09766,5.16015 40.98828,-34.67969 40.98632,34.67969 40.73243,-34.52148 0.12109,-0.10938 0.12109,0.10938 40.73243,34.52148 40.98632,-34.67969 40.98828,34.67969 6.08985,-5.15234 c -8.89993,-17.41221 -21.69341,-32.74013 -37.31836,-44.9961 -0.0423,-0.0331 -0.0827,-0.0685 -0.125,-0.10156 -0.87045,-0.67936 -1.7477,-1.3503 -2.63477,-2.01172 13.60289,-13.14543 37.96619,-23.75102 82.65821,-27.19726 -10.03248,-12.01272 -21.90613,-22.35849 -35.17774,-30.6543 -0.96026,-0.58345 -1.9334,-1.15615 -2.91797,-1.70313 -0.99673,-0.56723 -2.00436,-1.11389 -3.02539,-1.64062 -2.09068,-1.09396 -4.19467,-2.10354 -6.33398,-3.02734 -1.36137,-0.5956 -2.72173,-1.15356 -4.10742,-1.66407 -1.38569,-0.51052 -2.77252,-0.99796 -4.15821,-1.43554 -6.7133,-2.16749 -13.71906,-3.2939 -20.77343,-3.3418 -11.4458,0.0218 -22.65243,3.26583 -32.33985,9.36133 l 0.0801,0.0469 c -0.66245,0.4072 -1.34839,0.85104 -2.02148,1.30078 -0.67309,0.44975 -1.3317,0.90444 -1.93946,1.33594 -1.21552,0.86302 -2.43096,1.78692 -3.64648,2.77149 -0.64084,0.51634 -1.27526,1.04201 -1.90234,1.57422 -0.62712,0.53219 -1.24824,1.07134 -1.86133,1.61914 -0.6131,0.54779 -1.21957,1.10291 -1.81836,1.66601 -1.19759,1.1262 -2.36523,2.28303 -3.50391,3.46875 -1.13867,1.18573 -2.24673,2.40153 -3.32422,3.64453 -0.53874,0.6215 -1.07073,1.24937 -1.59375,1.88477 0.003,-0.054 0.005,-0.10811 0.008,-0.16211 -0.0348,0.042 -0.0709,0.0829 -0.10546,0.125 0.44978,-7.38274 0.29262,-14.78976 -0.47266,-22.14649 -0.18233,-1.79897 -0.39035,-3.48817 -0.66992,-5.2871 -0.27957,-1.79901 -0.59521,-3.67067 -0.93555,-5.44532 -2.06131,-10.68711 -5.72534,-21.0008 -10.86719,-30.59375 -0.88733,-1.62879 -1.79778,-3.22258 -2.69726,-4.69336 -0.89948,-1.47077 -1.79886,-2.87972 -2.72266,-4.21679 -10.94048,-16.16639 -22.67034,-23.33789 -22.67034,-23.33789 z m -199.05078,60.6289 a 223.99998,223.99998 0 0 0 -24.94922,102.73633 223.99998,223.99998 0 0 0 224,224 223.99998,223.99998 0 0 0 224,-224 223.99998,223.99998 0 0 0 -24.94922,-102.73633 h -10.0625 c -6.43426,0.0863 -12.82339,1.08918 -18.97461,2.97852 l -0.64258,0.19336 c 17.73078,30.16144 27.09938,64.53212 27.09961,99.56445 -2.2e-4,50.14086 -19.17099,98.38432 -53.58593,134.84961 v -55.5 c 0,-6.36846 -0.4766,-12.63229 -1.39258,-18.76367 l -18.66407,15.79687 -40.98828,-34.6914 -40.98632,34.6914 -40.85352,-34.58203 -40.85352,34.58203 -40.98632,-34.6914 -40.98828,34.6914 -18.67383,-15.80664 c -0.91695,6.13451 -1.39453,12.40159 -1.39453,18.77344 v 55.48828 c -34.4079002,-36.46417 -53.57417,-84.70269 -53.57422,-134.83789 4.2e-4,-35.02582 9.3687,-69.39679 27.1035198,-99.56445 l -0.64649,-0.19336 c -6.15122,-1.88934 -12.54035,-2.89222 -18.9746098,-2.97852 z M 91.72073,280.32655 54.6094,311.67616 c -2.26612,1.91778 -5.58544,1.91778 -7.85156,0 l -4.82813,-4.08398 c -3.80447,8.42419 -6.71683,17.28673 -8.625,26.48828 l 17.42774,14.75391 37.06054,-31.37305 c 1.13306,-0.95889 2.53089,-1.4375 3.92774,-1.4375 1.39685,0 2.79272,0.47861 3.92578,1.4375 l 37.06054,31.37305 36.92774,-31.26367 c 1.13306,-0.95889 2.52925,-1.4375 3.92578,-1.4375 1.39653,0 2.79272,0.47861 3.92578,1.4375 l 36.92774,31.26367 37.06054,-31.37305 c 1.13306,-0.95889 2.52893,-1.4375 3.92578,-1.4375 1.39685,0 2.79468,0.47861 3.92774,1.4375 l 37.06054,31.37305 17.41797,-14.74414 c -1.90758,-9.20241 -4.82086,-18.06523 -8.625,-26.49024 l -4.81836,4.07617 c -2.26612,1.91778 -5.58544,1.91778 -7.85156,0 l -37.11133,-31.34961 -37.01172,31.34961 c -2.26611,1.91778 -5.58544,1.91778 -7.85156,0 l -36.97656,-31.24023 -36.97656,31.24023 c -2.26612,1.91778 -5.58547,1.91778 -7.85156,0 z m 71.65625,89.09571 c 0.27121,-9.5e-4 0.48133,0.038 0.625,0.12109 4.59718,2.65793 4.59718,85.887 0,88.54492 -4.56297,2.65793 -76.68164,-38.95758 -76.68164,-44.27343 0,-5.14974 67.64907,-44.36318 76.05664,-44.39258 z m 80.13671,0 c 0.27121,-9.5e-4 0.48134,0.038 0.625,0.12109 4.5972,2.65793 4.60861,85.887 0,88.54492 -4.56296,2.65793 -76.66992,-38.95758 -76.66992,-44.27343 0,-5.14974 67.63802,-44.36318 76.04492,-44.39258 z" />
    </g>
  </g>
</svg>
