<?xml version="1.0" encoding="UTF-8"?>
<svg fill="#ffffff" version="1.1" viewBox="0 0 220 200" xmlns="http://www.w3.org/2000/svg">
 <defs>
  <style>.cls-1{fill:#fff;}.cls-2{fill:none;}.cls-3{fill:#f0b01f;}.cls-4{mask:url(#mask);}.cls-5{clip-path:url(#clip-path);}</style>
 </defs>
 <path d="m8.2535 1.8394c4.5138 4.2817 6.2257 8.6105 11.235 9.193l0.14167 0.0275c-2.314 2.3849-4.2895 5.5174-5.6787 9.5354-1.4954 4.3131-1.9205 8.9923-2.4163 14.399-0.74772 8.0517-1.5781 17.174-6.1234 28.606-9.7833 24.627-4.4076 45.768 1.3065 68.148 2.6131 10.248 5.3049 20.846 6.4618 31.904a3.3726 3.3726 0 0 0 2.4911 2.9279 3.3844 3.3844 0 0 0 3.6284-1.2711c0.89333-1.2318 2.0621-3.1365 3.3844-5.6039 3.3057 13.077 5.3324 24.124 7.0167 34.226a3.408 3.408 0 0 0 5.9699 1.6135c11.334-13.628 14.809-33.986 8.5948-49.877 1.8063-9.5747 5.5174-17.512 9.437-25.906 2.1093-4.5256 4.2502-9.1221 6.0998-14.033 0.89726-0.3306 2.2392-1.2357 3.1089-1.7355l6.7176-3.8606-1.0074 4.14a3.4001 3.4001 0 0 0 6.6035 1.6056l2.676-11.247 5.0569-11.609a3.3962 3.3962 0 1 0-6.2218-2.7036l-4.5335 10.503-9.3779 5.3993a74.654 74.654 0 0 0 1.9992-11.731c1.7001-19.126-2.8256-35.709-12.066-44.336-0.64146-0.61785-0.81855-1.1058-0.97203-1.0232 0.37386-0.47224 0.9799-1.0232 1.4089-1.4718 8.9844-6.6625 23.797-0.5785 32.738 2.9515 2.3179 0.913 3.4474-1.3262 1.2436-2.6367-7.6739-4.5375-23.407-16.513-32.223-24.372-1.2318-1.0822-2.0739-2.3888-3.5025-3.593-9.5039-16.784-32.144-6.938-42.836-8.8585-0.40141-0.07084-0.65327 0.40534-0.36205 0.68869m43.21 23.215c-0.23612 4.8877-2.373 7.0836-3.9354 8.6893-0.85397 0.88152-1.6765 1.7158-2.0621 2.9043-0.92874 2.8098 0.03148 5.9424 2.5973 8.4335 7.7684 7.241 11.511 21.751 9.9879 38.803-1.1452 12.939-5.6984 22.679-10.511 32.998-4.0573 8.6853-8.2485 17.666-10.141 28.567a3.3569 3.3569 0 0 0 0.22038 1.889c4.0141 9.5786 4.4666 24.387-2.6446 37.228a380.1 380.1 0 0 0-7.7526-34.281c7.729-17.662 16.54-46.24 11.487-69.53-1.279-5.8912-5.1317-12.892-9.3937-16.556-0.81855-0.70836-1.582-0.93268-1.948-0.6572-0.33057 0.23612-0.59424 0.93661-0.24399 1.7473 2.1644 4.9822 3.4592 10.228 4.8247 16.828 4.4273 21.42-3.7622 49.153-11.157 66.043l-0.4565 1.0192-1.7985 3.8645c-1.401-7.9258-3.345-15.545-5.234-22.982-5.4308-21.274-10.547-41.38-1.5781-63.965 4.9074-12.345 5.8361-22.4 6.5799-30.483 0.4565-4.9703 0.85004-9.2678 2.07-12.798 3.5615-10.252 12.05-12.507 18.669-11.224 6.4225 1.2436 12.751 6.269 12.42 13.459zm-11.287 2.4399a4.6319 4.6319 0 1 0 2.8964-8.7994 4.6358 4.6358 0 1 0-2.8964 8.8034z" stroke-width="3.9354"/>
 <path d="m144.44 39.706a73.316 73.316 0 0 0-29.284 7.0914l4e-3 0.0013c3.0018 0.82845 5.8612 2.1049 8.4818 3.787 0.5729 0.35541 1.1431 0.72937 1.7107 1.1219 0.1965 0.13615 0.3887 0.2783 0.583 0.41744 2.569-0.87594 5.1904-1.5892 7.8496-2.1339 0.2261-0.27742 0.4544-0.55289 0.6859-0.82593 0.5305-0.63655 1.0864-1.2676 1.6672-1.8935 2.5296-2.7716 5.3102-5.3014 8.3009-7.5657zm4.4922 0c2.9905 2.2643 5.7708 4.7943 8.3003 7.5657 0.5809 0.62594 1.1368 1.257 1.6672 1.8935 0.2322 0.27386 0.4611 0.55023 0.6879 0.82849 2.6585 0.54443 5.2803 1.2556 7.849 2.1313 0.194-0.13894 0.3856-0.28149 0.5817-0.41744 0.5676-0.39254 1.1378-0.76651 1.7107-1.1219 2.6206-1.6822 5.48-2.9586 8.4818-3.787l4e-3 -0.0013a73.316 73.316 0 0 0-29.283-7.0914zm-2.2464 0.82658c-3.3007 2.3666-6.3412 5.0766-9.0706 8.0842-2.3145 2.5028-4.3873 5.2188-6.1907 8.1117-0.2506 0.39785-0.4931 0.79552-0.7358 1.2332-0.2427 0.43763-0.4739 0.83559-0.7006 1.2613-2.8645 5.351-4.8174 11.669-4.4116 18.699-5.4505-6.5127-10.889-9.4971-16.168-10.205-0.4655-0.0637-0.927-0.10719-1.3885-0.13105-0.3978-0.0279-0.7957-0.0396-1.1935-0.0396h-0.2033c-2.4004 0.04984-4.7785 0.47122-7.0499 1.2491-5.2197 1.7346-10.185 5.0647-14.72 8.5777 2.4678 0.02959 4.9171 0.43197 7.2647 1.1935 3.5181 1.1544 6.872 2.7591 9.9784 4.7741 1e-3 9.82e-4 3e-3 0.0016 4e-3 0.0026 1.2262-0.68935 2.495-1.3002 3.7985-1.8289 0.4575-0.19097 0.9112-0.36172 1.3687-0.52484 0.4575-0.16312 0.9188-0.3103 1.3764-0.44557 2.2422-0.68141 4.5715-1.0352 6.915-1.0503 4.4831 0.0084 8.8571 1.3822 12.54 3.9385 0.4164 0.28115 0.8304 0.57935 1.2415 0.89498 0.3978 0.2944 0.7954 0.60902 1.1654 0.93525 0.2362 0.19751 0.4726 0.38835 0.7051 0.61114 3.3e-4 -0.17976 9e-3 -0.35914 0.022-0.53699 0.013-0.18102 0.031-0.36051 0.045-0.53954 0.02-0.28844 0.043-0.57415 0.07-0.85662s0.057-0.56222 0.089-0.83872l0.022-0.0121c0.063-0.54853 0.1416-1.1797 0.2321-1.7184 0.7114-4.7728 2.332-9.3643 4.7741-13.526 0.2825-0.47741 0.5651-0.93133 0.8515-1.361 0.175-0.27451 0.3541-0.53729 0.5332-0.79589 0.1154-0.16312 0.2266-0.32173 0.342-0.47689 3.6162-4.997 7.3043-7.2925 7.4635-7.388l1.0305-0.63678 1.0305 0.63671c0.1591 0.0955 3.8473 2.391 7.4635 7.388 0.1154 0.15516 0.2266 0.31377 0.342 0.47689 0.179 0.2586 0.3581 0.52137 0.5331 0.79589 0.2864 0.42967 0.569 0.88359 0.8515 1.361 2.4421 4.162 4.0627 8.7535 4.7741 13.526 0.09 0.53866 0.1688 1.1698 0.2321 1.7184l0.022 0.0121c0.032 0.2765 0.062 0.55625 0.089 0.83872s0.05 0.56818 0.07 0.85662c0.014 0.17903 0.031 0.35852 0.045 0.53954 0.013 0.17784 0.022 0.35722 0.022 0.53698 0.2326-0.22279 0.4689-0.41363 0.7051-0.61114 0.37-0.32623 0.7675-0.64085 1.1654-0.93525 0.4111-0.31562 0.825-0.61383 1.2415-0.89498 3.6828-2.5564 8.0568-3.9301 12.54-3.9385 2.3434 0.0151 4.6728 0.3689 6.915 1.0503 0.4575 0.13527 0.9188 0.28246 1.3763 0.44557 0.4575 0.16312 0.9111 0.33387 1.3687 0.52484 1.3035 0.52877 2.5724 1.1396 3.7985 1.8289 2e-3 -9.82e-4 3e-3 -0.0016 4e-3 -0.0026 3.1077-2.015 6.4616-3.6196 9.9797-4.774 2.3476-0.76154 4.7968-1.1639 7.2646-1.1935-4.5354-3.513-9.5007-6.8431-14.72-8.5777-2.2714-0.77787-4.6495-1.1992-7.0499-1.2491h-0.2033c-0.3978 0-0.7957 0.0118-1.1935 0.0396-0.4615 0.0239-0.923 0.0674-1.3885 0.13105-5.2794 0.70817-10.718 3.6926-16.168 10.205 0.4058-7.0299-1.5471-13.348-4.4116-18.699-0.2268-0.42569-0.458-0.82365-0.7006-1.2613-0.2427-0.43763-0.4852-0.8353-0.7358-1.2332-1.8035-2.8927-3.8762-5.6087-6.1907-8.1116-2.7293-3.0077-5.7699-5.7176-9.0706-8.0842zm34.781 7.9141c1.4538 3.1311 2.6002 6.3962 3.4194 9.7501 0.2666 1.0503 0.5173 2.1081 0.7441 3.1823 0.038 0.17247 0.07 0.349 0.1068 0.52228 1.6484 1.2601 3.2348 2.5993 4.7536 4.0127 0.1968 0.0345 0.3941 0.0646 0.59 0.1042 1.1356 0.22673 2.2559 0.52436 3.3542 0.89114 5.9239 1.9654 11.298 5.7846 15.325 8.8878l0.088 0.0678 0.1131 0.0876a73.316 73.316 0 0 0-28.494-27.506zm-69.563 6.55e-4a73.316 73.316 0 0 0-28.492 27.505l0.11187-0.0869 0.0876-0.0678c4.0262-3.1032 9.4006-6.9224 15.325-8.8878 1.0984-0.36678 2.2187-0.66441 3.3543-0.89114 0.1959-0.0396 0.3933-0.0697 0.59-0.1042 1.5187-1.4133 3.1047-2.7521 4.753-4.0121 0.037-0.17353 0.069-0.3502 0.1074-0.52292 0.2268-1.0742 0.4776-2.132 0.7441-3.1823 0.8192-3.3537 1.9657-6.6186 3.4194-9.7495zm2.552 1.0407c-1.4112 3.0157-2.5212 6.1628-3.314 9.3966-0.5729 2.22-1.0545 4.532-1.4364 6.8594 4.8975 0.66838 9.5844 3.0986 13.969 7.2442 0.5106-5.164 2.0615-10.171 4.5593-14.72 0.086-0.15954 0.1715-0.32293 0.2608-0.48265-1.9523-1.8062-4.0698-3.4256-6.3243-4.8367-2.3844-1.5321-4.9844-2.6985-7.7141-3.461zm64.459 0c-2.7297 0.76251-5.3297 1.9289-7.7141 3.461-2.2545 1.4111-4.372 3.0305-6.3243 4.8367 0.089 0.15972 0.1752 0.32311 0.2608 0.48265 2.4977 4.5486 4.0486 9.5558 4.5593 14.72 4.3843-4.1456 9.0712-6.5758 13.969-7.2442-0.38193-2.3274-0.86354-4.6394-1.4364-6.8594-0.79281-3.2338-1.9028-6.3809-3.314-9.3966zm-32.229 10.029s-3.8392 2.3473-7.42 7.6386c-0.3024 0.43763-0.5967 0.89879-0.8911 1.3802s-0.5924 1.0031-0.8828 1.5362c-1.683 3.1398-2.8822 6.5156-3.5569 10.014-0.1114 0.58085-0.2147 1.1935-0.3062 1.7823-0.092 0.5888-0.1596 1.1417-0.2193 1.7305-0.2505 2.4079-0.3019 4.8323-0.1547 7.2487-0.011-0.0138-0.023-0.0272-0.035-0.0409 9.8e-4 0.0177 2e-3 0.0354 3e-3 0.0531-0.1712-0.20797-0.3453-0.41348-0.5217-0.6169-0.3527-0.40684-0.7153-0.80478-1.088-1.1929-0.3727-0.38809-0.7549-0.76673-1.1468-1.1353-0.196-0.18431-0.3945-0.366-0.5952-0.54529-0.2007-0.1793-0.404-0.35577-0.6092-0.52995-0.2052-0.1742-0.4129-0.34625-0.6226-0.51525-0.3979-0.32225-0.7957-0.62465-1.1935-0.90712-0.1989-0.14123-0.4145-0.29006-0.6348-0.43726s-0.4448-0.29247-0.6616-0.42575l0.026-0.0154c-3.1701-1.9951-6.8381-3.0569-10.584-3.064-2.3089 0.0157-4.602 0.38436-6.7992 1.0938-0.4535 0.14322-0.9075 0.30276-1.361 0.46986-0.4535 0.16709-0.8988 0.34972-1.3444 0.54466-0.7002 0.30236-1.3888 0.63281-2.0731 0.99087-0.3342 0.1724-0.664 0.35133-0.9902 0.53698-0.3223 0.17903-0.6408 0.36648-0.9551 0.55744-4.3439 2.7153-8.2302 6.1015-11.514 10.033 14.628 1.128 22.602 4.5993 27.054 8.9018-0.4134 0.3083-0.8195 0.6243-1.2216 0.9448-4.9697 3.9683-9.0461 8.892-11.899 14.472l1.9958 1.689 13.416-11.351 13.415 11.351 13.332-11.299 0.04-0.036 0.04 0.036 13.332 11.299 13.415-11.351 13.416 11.351 1.9932-1.6864c-2.913-5.6991-7.1004-10.716-12.215-14.727-0.014-0.011-0.027-0.022-0.041-0.033-0.2849-0.2224-0.572-0.442-0.8624-0.6584 4.4523-4.3026 12.427-7.7738 27.054-8.9018-3.2837-3.9318-7.17-7.3181-11.514-10.033-0.3143-0.19097-0.6328-0.37841-0.9551-0.55744-0.3262-0.18566-0.656-0.36458-0.9902-0.53698-0.6843-0.35806-1.3729-0.6885-2.0731-0.99087-0.4456-0.19494-0.8908-0.37757-1.3444-0.54466-0.4535-0.1671-0.9075-0.32664-1.361-0.46986-2.1973-0.70943-4.4903-1.0781-6.7993-1.0938-3.7463 0.0071-7.4143 1.0689-10.585 3.064l0.026 0.0154c-0.2168 0.13328-0.4413 0.27855-0.6617 0.42575-0.2203 0.14721-0.4359 0.29603-0.6348 0.43726-0.3979 0.28247-0.7957 0.58487-1.1935 0.90712-0.2097 0.169-0.4174 0.34106-0.6226 0.51525-0.2053 0.17419-0.4086 0.35066-0.6092 0.52995-0.2007 0.17929-0.3992 0.36099-0.5952 0.54529-0.392 0.36861-0.7741 0.74725-1.1468 1.1353-0.3727 0.3881-0.7354 0.78603-1.088 1.1929-0.1763 0.20342-0.3505 0.40893-0.5216 0.6169 9.8e-4 -0.0177 2e-3 -0.0354 3e-3 -0.0531-0.011 0.0137-0.023 0.0271-0.035 0.0409 0.1472-2.4164 0.096-4.8408-0.1547-7.2487-0.06-0.58881-0.1278-1.1417-0.2193-1.7305-0.091-0.58883-0.1948-1.2014-0.3062-1.7823-0.6746-3.4982-1.8738-6.8739-3.5568-10.014-0.2904-0.53311-0.5884-1.0548-0.8828-1.5362-0.2944-0.48139-0.5888-0.94255-0.8911-1.3802-3.581-5.2914-7.4202-7.6386-7.4202-7.6386zm-65.15 19.844a73.316 73.316 0 0 0-8.166 33.626 73.316 73.316 0 0 0 73.316 73.316 73.316 73.316 0 0 0 73.316-73.316 73.316 73.316 0 0 0-8.166-33.626h-3.2935c-2.106 0.0282-4.1972 0.35649-6.2105 0.97489l-0.2103 0.0633c5.8034 9.872 8.8698 21.122 8.8699 32.588-8e-5 16.411-6.2748 32.202-17.539 44.137v-18.165c0-2.0844-0.156-4.1346-0.4558-6.1414l-6.1089 5.1704-13.416-11.355-13.415 11.355-13.372-11.319-13.372 11.319-13.415-11.355-13.416 11.355-6.112-5.1736c-0.3001 2.0079-0.45644 4.0591-0.45644 6.1446v18.162c-11.262-11.935-17.535-27.724-17.535-44.133 1.37e-4 -11.464 3.0664-22.714 8.8711-32.588l-0.2116-0.0633c-2.0133-0.61838-4.1045-0.94663-6.2105-0.97488zm38.364 33.582-12.147 10.261c-0.7417 0.6277-1.8282 0.6277-2.5699 0l-1.5803-1.3367c-1.2452 2.7573-2.1985 5.658-2.823 8.6698l5.7042 4.829 12.13-10.269c0.3709-0.3139 0.8284-0.4705 1.2856-0.4705 0.4572 0 0.9141 0.1566 1.2849 0.4705l12.13 10.269 12.087-10.233c0.3708-0.3139 0.8278-0.4705 1.2849-0.4705 0.4571 0 0.9141 0.1567 1.2849 0.4705l12.087 10.233 12.13-10.269c0.3709-0.3139 0.8277-0.4705 1.2849-0.4705 0.4572 0 0.9147 0.1566 1.2856 0.4705l12.13 10.269 5.701-4.8258c-0.6244-3.012-1.5779-5.9128-2.823-8.6704l-1.5771 1.3342c-0.7417 0.6277-1.8281 0.6277-2.5699 0l-12.147-10.261-12.114 10.261c-0.7417 0.6277-1.8282 0.6277-2.5699 0l-12.103-10.225-12.103 10.225c-0.7417 0.6277-1.8282 0.6277-2.5699 0zm23.454 29.162c0.089-3.1e-4 0.1575 0.012 0.2046 0.04 1.5047 0.87 1.5047 28.111 0 28.981-1.4935 0.87-25.098-12.751-25.098-14.491 0-1.6855 22.142-14.52 24.894-14.53zm26.229 0c0.089-3.1e-4 0.1576 0.012 0.2046 0.04 1.5047 0.87 1.5084 28.111 0 28.981-1.4935 0.87-25.094-12.751-25.094-14.491 0-1.6855 22.138-14.52 24.89-14.53z" fill="#fff" style="paint-order:stroke markers fill"/>
</svg>
